<svg aria-hidden="true" style="position: absolute; width: 0; height: 0; overflow: hidden;" version="1.1" xmlns="http://www.w3.org/2000/svg" xmlns:xlink="http://www.w3.org/1999/xlink">
<defs>
<symbol id="icon-twitter" viewBox="0 0 32 32">
<title>twitter</title>
<path d="M28.711 9.482c0.020 0.284 0.020 0.569 0.020 0.853 0 8.67-6.599 18.66-18.66 18.66-3.716 0-7.168-1.076-10.071-2.944 0.528 0.061 1.036 0.081 1.584 0.081 3.066 0 5.888-1.035 8.142-2.802-2.883-0.061-5.3-1.949-6.132-4.548 0.406 0.061 0.812 0.102 1.239 0.102 0.589 0 1.178-0.081 1.726-0.223-3.005-0.609-5.259-3.249-5.259-6.437v-0.081c0.873 0.487 1.888 0.792 2.964 0.832-1.766-1.178-2.924-3.188-2.924-5.462 0-1.218 0.325-2.335 0.893-3.31 3.228 3.98 8.081 6.579 13.523 6.863-0.101-0.487-0.162-0.995-0.162-1.502 0-3.614 2.924-6.558 6.558-6.558 1.888 0 3.594 0.792 4.792 2.071 1.482-0.284 2.904-0.832 4.162-1.584-0.487 1.523-1.523 2.802-2.883 3.614 1.32-0.142 2.599-0.508 3.777-1.015-0.893 1.299-2.010 2.457-3.289 3.391z"></path>
</symbol>
<symbol id="icon-safe-box" viewBox="0 0 32 32">
<title>safe-box</title>
<path d="M32 1.378h-32v26.16h3.535v3.083h8.016v-3.083h8.897v3.083h8.016v-3.083h3.535v-26.16h-0zM10.605 29.675h-6.124v-2.137h6.125v2.137h-0zM27.519 29.675h-6.125v-2.137h6.125v2.137zM31.054 26.592h-30.108v-24.268h30.108v24.268z"></path>
<path d="M28.465 18.47h1.542v-8.017h-1.542v-5.647h-24.93v19.303h24.93v-5.64h-0zM29.060 11.399v6.125h-2.137v-6.125h2.137zM27.519 23.164h-23.038v-17.411h23.038v4.701h-1.542v8.016h1.542v4.694h-0z"></path>
<path d="M16 8.622c-3.218 0-5.836 2.618-5.836 5.836s2.618 5.836 5.836 5.836 5.836-2.618 5.836-5.836-2.618-5.836-5.836-5.836zM16 19.348c-2.697 0-4.89-2.194-4.89-4.89s2.194-4.89 4.89-4.89 4.89 2.194 4.89 4.89c0 2.696-2.194 4.89-4.89 4.89z"></path>
<path d="M16 11.381c-1.697 0-3.077 1.38-3.077 3.077s1.38 3.077 3.077 3.077 3.077-1.38 3.077-3.077c0-1.696-1.38-3.077-3.077-3.077zM16 16.589c-1.175 0-2.131-0.956-2.131-2.131s0.956-2.131 2.131-2.131 2.131 0.956 2.131 2.131c0 1.176-0.956 2.131-2.131 2.131z"></path>
</symbol>
<symbol id="icon-shopping-cart" viewBox="0 0 32 32">
<title>shopping-cart</title>
<path d="M10.31 20.688h0.001c0.001 0 0.002-0 0.004-0h16.997c0.418 0 0.786-0.278 0.901-0.68l3.75-13.125c0.081-0.283 0.024-0.587-0.153-0.822s-0.454-0.373-0.749-0.373h-22.915l-0.67-3.016c-0.095-0.429-0.476-0.734-0.915-0.734h-5.625c-0.518 0-0.938 0.42-0.938 0.938s0.42 0.938 0.938 0.938h4.873c0.119 0.534 3.207 14.432 3.385 15.232-0.996 0.433-1.695 1.427-1.695 2.581 0 1.551 1.262 2.813 2.813 2.813h17c0.518 0 0.938-0.42 0.938-0.938s-0.42-0.938-0.938-0.938h-17c-0.517 0-0.938-0.421-0.938-0.938s0.419-0.936 0.935-0.937zM29.82 7.563l-3.214 11.25h-15.541l-2.5-11.25z"></path>
<path d="M9.375 27.25c0 1.551 1.262 2.813 2.813 2.813s2.813-1.262 2.813-2.813-1.262-2.813-2.813-2.813-2.813 1.262-2.813 2.813zM12.188 26.313c0.517 0 0.938 0.421 0.938 0.938s-0.421 0.938-0.938 0.938-0.938-0.421-0.938-0.938 0.421-0.938 0.938-0.938z"></path>
<path d="M22.625 27.25c0 1.551 1.262 2.813 2.813 2.813s2.813-1.262 2.813-2.813-1.262-2.813-2.813-2.813-2.813 1.262-2.813 2.813zM25.438 26.313c0.517 0 0.938 0.421 0.938 0.938s-0.421 0.938-0.938 0.938-0.938-0.421-0.938-0.938 0.421-0.938 0.938-0.938z"></path>
</symbol>
<symbol id="icon-settings" viewBox="0 0 32 32">
<title>settings</title>
<path d="M30.573 12.91c-0.602-0.090-1.22-0.177-1.836-0.257-0.075-0.010-0.135-0.060-0.154-0.129-0.285-1.033-0.698-2.029-1.227-2.962-0.036-0.063-0.029-0.142 0.017-0.201 0.379-0.493 0.755-0.991 1.117-1.481 0.489-0.661 0.418-1.599-0.165-2.182l-2.023-2.023c-0.583-0.583-1.521-0.654-2.182-0.165-0.489 0.361-0.987 0.737-1.481 1.117-0.060 0.046-0.139 0.053-0.201 0.017-0.933-0.53-1.929-0.943-2.962-1.227-0.069-0.019-0.119-0.079-0.129-0.154-0.081-0.618-0.167-1.235-0.257-1.836-0.122-0.813-0.835-1.427-1.66-1.427h-2.861c-0.825 0-1.538 0.613-1.66 1.427-0.090 0.601-0.176 1.219-0.257 1.836-0.010 0.075-0.060 0.135-0.129 0.154-1.033 0.285-2.029 0.698-2.962 1.227-0.063 0.036-0.142 0.029-0.202-0.017-0.494-0.38-0.992-0.756-1.481-1.117-0.661-0.489-1.599-0.418-2.182 0.165l-2.023 2.023c-0.583 0.583-0.654 1.521-0.165 2.182 0.363 0.49 0.739 0.988 1.117 1.48 0.046 0.060 0.053 0.139 0.017 0.201-0.53 0.933-0.943 1.929-1.227 2.962-0.019 0.069-0.079 0.119-0.154 0.129-0.616 0.080-1.234 0.167-1.836 0.257-0.813 0.122-1.427 0.835-1.427 1.66v2.861c0 0.825 0.613 1.538 1.427 1.66 0.602 0.090 1.22 0.177 1.836 0.257 0.075 0.010 0.135 0.060 0.154 0.129 0.285 1.033 0.698 2.029 1.227 2.962 0.036 0.063 0.029 0.142-0.017 0.201-0.38 0.493-0.755 0.991-1.117 1.481-0.489 0.661-0.418 1.599 0.165 2.182l2.023 2.023c0.583 0.583 1.521 0.654 2.182 0.165 0.489-0.361 0.987-0.737 1.481-1.117 0.060-0.046 0.139-0.053 0.201-0.017 0.932 0.53 1.929 0.943 2.962 1.227 0.069 0.019 0.119 0.079 0.129 0.154 0.081 0.617 0.167 1.235 0.257 1.836 0.122 0.813 0.835 1.427 1.66 1.427h2.861c0.825 0 1.538-0.613 1.66-1.427 0.090-0.601 0.176-1.219 0.257-1.836 0.010-0.075 0.060-0.135 0.129-0.154 1.033-0.285 2.029-0.698 2.962-1.227 0.063-0.035 0.142-0.029 0.201 0.017 0.494 0.38 0.992 0.756 1.481 1.117 0.661 0.489 1.599 0.418 2.182-0.165l2.023-2.023c0.583-0.583 0.654-1.521 0.165-2.182-0.362-0.489-0.738-0.988-1.117-1.481-0.046-0.060-0.053-0.139-0.017-0.201 0.53-0.933 0.943-1.929 1.227-2.962 0.019-0.069 0.079-0.119 0.154-0.129 0.616-0.080 1.234-0.167 1.836-0.257 0.813-0.122 1.427-0.835 1.427-1.66v-2.861c0-0.824-0.613-1.538-1.427-1.66zM30.506 17.431c0 0.091-0.066 0.169-0.153 0.182-0.593 0.089-1.201 0.174-1.808 0.253-0.672 0.088-1.223 0.564-1.402 1.214-0.252 0.914-0.617 1.795-1.086 2.621-0.333 0.587-0.282 1.313 0.132 1.851 0.373 0.485 0.744 0.976 1.1 1.458 0.053 0.071 0.044 0.173-0.020 0.237l-2.023 2.023c-0.064 0.064-0.166 0.073-0.237 0.020-0.481-0.356-0.972-0.726-1.458-1.1-0.537-0.414-1.264-0.465-1.851-0.132-0.825 0.469-1.707 0.834-2.621 1.086-0.65 0.179-1.126 0.729-1.214 1.402-0.079 0.608-0.164 1.216-0.253 1.808-0.013 0.087-0.091 0.153-0.182 0.153h-2.861c-0.091 0-0.169-0.066-0.182-0.153-0.088-0.592-0.174-1.2-0.253-1.808-0.088-0.672-0.564-1.223-1.214-1.402-0.914-0.252-1.796-0.617-2.621-1.086-0.257-0.146-0.541-0.218-0.825-0.218-0.363 0-0.724 0.118-1.026 0.35-0.486 0.374-0.977 0.744-1.458 1.1-0.071 0.052-0.173 0.044-0.237-0.020l-2.023-2.023c-0.064-0.064-0.073-0.166-0.020-0.237 0.356-0.482 0.726-0.972 1.1-1.458 0.413-0.538 0.465-1.264 0.132-1.851-0.469-0.826-0.834-1.707-1.086-2.621-0.179-0.65-0.729-1.126-1.402-1.214-0.607-0.079-1.215-0.164-1.808-0.253-0.087-0.013-0.153-0.091-0.153-0.182v-2.861c0-0.091 0.066-0.169 0.153-0.182 0.593-0.089 1.201-0.174 1.808-0.253 0.672-0.088 1.223-0.564 1.402-1.214 0.252-0.913 0.617-1.795 1.086-2.621 0.333-0.587 0.281-1.313-0.132-1.851-0.373-0.485-0.743-0.975-1.1-1.458-0.053-0.071-0.044-0.173 0.020-0.237l2.023-2.023c0.064-0.064 0.166-0.073 0.237-0.020 0.481 0.356 0.972 0.726 1.458 1.1 0.537 0.413 1.264 0.465 1.851 0.132 0.825-0.469 1.707-0.834 2.621-1.086 0.65-0.179 1.126-0.729 1.214-1.402 0.079-0.608 0.164-1.217 0.253-1.808 0.013-0.087 0.091-0.153 0.182-0.153h2.861c0.091 0 0.169 0.066 0.182 0.153 0.089 0.592 0.174 1.2 0.253 1.808 0.088 0.672 0.564 1.223 1.214 1.402 0.914 0.252 1.796 0.617 2.621 1.086 0.587 0.333 1.313 0.281 1.851-0.132 0.486-0.374 0.977-0.744 1.458-1.1 0.071-0.053 0.173-0.044 0.237 0.020l2.023 2.023c0.064 0.064 0.073 0.166 0.020 0.237-0.357 0.482-0.727 0.973-1.1 1.458-0.413 0.538-0.465 1.264-0.132 1.851 0.469 0.825 0.834 1.707 1.086 2.621 0.179 0.65 0.729 1.126 1.401 1.214 0.607 0.079 1.216 0.164 1.808 0.253 0.087 0.013 0.153 0.091 0.153 0.182v2.861z"></path>
<path d="M16 9.054c-3.83 0-6.946 3.116-6.946 6.946s3.116 6.946 6.946 6.946 6.946-3.116 6.946-6.946-3.116-6.946-6.946-6.946zM16 21.452c-3.006 0-5.452-2.446-5.452-5.452s2.446-5.452 5.452-5.452c3.006 0 5.452 2.446 5.452 5.452s-2.445 5.452-5.452 5.452z"></path>
</symbol>
<symbol id="icon-random-solid" viewBox="0 0 32 32">
<title>random-solid</title>
<path d="M31.561 22.439c0.586 0.586 0.586 1.536 0 2.121l-5 4.999c-0.938 0.938-2.561 0.281-2.561-1.061v-2.499h-3.674c-0.216-0-0.411-0.091-0.548-0.238l-0-0-4.41-4.725 3.333-3.571 3.299 3.534h2v-2.499c0-1.34 1.621-2 2.561-1.061l5 4.999zM0.75 11h5.25l3.299 3.534 3.333-3.571-4.41-4.725c-0.137-0.147-0.332-0.238-0.548-0.238-0 0-0 0-0 0h-6.924c-0.414 0-0.75 0.336-0.75 0.75v3.5c0 0.414 0.336 0.75 0.75 0.75zM24 11v2.499c0 1.341 1.623 1.999 2.561 1.061l5-4.999c0.586-0.586 0.586-1.536 0-2.121l-5-4.999c-0.939-0.939-2.561-0.279-2.561 1.061v2.499h-3.674c-0.216 0-0.411 0.091-0.548 0.238l-0 0-13.778 14.762h-5.25c-0.414 0-0.75 0.336-0.75 0.75v3.5c0 0.414 0.336 0.75 0.75 0.75h6.924c0.208 0 0.406-0.086 0.548-0.238l13.778-14.762h2z"></path>
</symbol>
<symbol id="icon-mail" viewBox="0 0 32 32">
<title>mail</title>
<path d="M29 4h-26c-1.657 0-3 1.343-3 3v18c0 1.657 1.343 3 3 3h26c1.657 0 3-1.343 3-3v-18c0-1.657-1.343-3-3-3zM29 7v2.55c-1.401 1.141-3.636 2.916-8.412 6.656-1.053 0.828-3.138 2.817-4.588 2.794-1.45 0.023-3.536-1.966-4.588-2.794-4.775-3.739-7.010-5.514-8.412-6.656v-2.55h26zM3 25v-11.6c1.432 1.141 3.463 2.741 6.559 5.165 1.366 1.075 3.758 3.449 6.441 3.435 2.67 0.014 5.032-2.325 6.441-3.434 3.096-2.424 5.127-4.025 6.559-5.166v11.6h-26z"></path>
</symbol>
<symbol id="icon-heart" viewBox="0 0 32 32">
<title>heart</title>
<path d="M28.65 4.019c-3.613-3.038-9.194-2.581-12.65 0.938-3.456-3.519-9.037-3.981-12.65-0.938-4.7 3.956-4.013 10.406-0.663 13.825l10.963 11.169c0.625 0.637 1.463 0.994 2.35 0.994 0.894 0 1.725-0.35 2.35-0.988l10.963-11.169c3.344-3.419 4.044-9.869-0.663-13.831zM27.175 15.738l-10.963 11.169c-0.15 0.15-0.275 0.15-0.425 0l-10.963-11.169c-2.281-2.325-2.744-6.725 0.456-9.419 2.431-2.044 6.181-1.737 8.531 0.656l2.188 2.231 2.188-2.231c2.363-2.406 6.113-2.7 8.531-0.662 3.194 2.694 2.719 7.119 0.456 9.425z"></path>
</symbol>
<symbol id="icon-globus" viewBox="0 0 32 32">
<title>globus</title>
<path d="M27.966 26.605c2.507-2.825 4.034-6.54 4.034-10.605 0-4.23-1.653-8.079-4.343-10.943 0 0 0-0.001 0-0.001-0.002-0.003-0.006-0.004-0.007-0.007-2.802-2.979-6.728-4.886-11.095-5.035l-0.001-0.001-0.312-0.008c-0.081-0.003-0.161-0.006-0.242-0.006s-0.162 0.003-0.242 0.006l-0.311 0.008-0.001 0.001c-4.367 0.15-8.293 2.056-11.095 5.035-0.002 0.003-0.006 0.004-0.007 0.007 0 0 0 0.001-0.001 0.001-2.691 2.863-4.344 6.712-4.344 10.942 0 4.066 1.527 7.78 4.034 10.605 0.003 0.005 0.003 0.010 0.007 0.015 0.010 0.014 0.024 0.020 0.035 0.033 2.817 3.149 6.859 5.178 11.37 5.332l0.001 0.001 0.311 0.008c0.081 0.002 0.162 0.005 0.243 0.005s0.162-0.003 0.242-0.006l0.311-0.008 0.001-0.001c4.516-0.155 8.562-2.188 11.379-5.343 0.007-0.009 0.019-0.012 0.025-0.022 0.004-0.004 0.004-0.010 0.008-0.015zM1.117 16.552h6.622c0.062 2.339 0.519 4.611 1.332 6.74-1.569 0.568-3.069 1.329-4.475 2.279-2.067-2.459-3.354-5.593-3.48-9.020zM4.898 6.082c1.373 0.893 2.834 1.608 4.359 2.142-0.934 2.266-1.45 4.709-1.517 7.225h-6.622c0.132-3.59 1.538-6.859 3.781-9.367zM30.883 15.448h-6.622c-0.067-2.516-0.584-4.959-1.517-7.225 1.524-0.534 2.986-1.249 4.359-2.142 2.243 2.508 3.649 5.777 3.781 9.367zM15.448 8.255c-1.595-0.045-3.161-0.283-4.674-0.708 1.118-2.294 2.697-4.365 4.674-6.089v6.797zM15.448 9.359v6.089h-6.605c0.068-2.399 0.571-4.726 1.471-6.883 1.658 0.481 3.38 0.746 5.134 0.793zM16.552 9.359c1.754-0.047 3.476-0.312 5.135-0.793 0.9 2.157 1.403 4.484 1.471 6.883h-6.606v-6.089zM16.552 8.255v-6.797c1.976 1.724 3.555 3.795 4.674 6.089-1.513 0.425-3.079 0.663-4.674 0.708zM22.295 7.212c-1.060-2.221-2.531-4.244-4.352-5.978 3.231 0.423 6.138 1.884 8.377 4.038-1.271 0.807-2.62 1.455-4.025 1.94zM9.705 7.212c-1.405-0.485-2.754-1.134-4.024-1.94 2.238-2.154 5.146-3.615 8.377-4.038-1.822 1.734-3.293 3.757-4.353 5.978zM8.843 16.552h6.605v5.538c-1.825 0.049-3.612 0.333-5.33 0.85-0.776-2.017-1.213-4.171-1.275-6.388zM15.448 23.193v7.348c-2.115-1.846-3.774-4.088-4.902-6.575 1.582-0.466 3.225-0.726 4.902-0.773zM16.552 30.541v-7.348c1.677 0.047 3.32 0.307 4.902 0.772-1.128 2.488-2.786 4.73-4.902 6.575zM16.552 22.090v-5.538h6.605c-0.062 2.217-0.499 4.372-1.276 6.389-1.718-0.518-3.505-0.802-5.33-0.851zM24.26 16.552h6.622c-0.126 3.426-1.412 6.561-3.48 9.020-1.406-0.95-2.906-1.711-4.475-2.279 0.814-2.129 1.27-4.402 1.332-6.74zM5.347 26.398c1.305-0.867 2.695-1.565 4.147-2.086 1.073 2.406 2.614 4.598 4.563 6.454-3.394-0.444-6.431-2.033-8.711-4.368zM17.943 30.766c1.95-1.856 3.49-4.048 4.563-6.454 1.452 0.521 2.841 1.219 4.147 2.086-2.28 2.335-5.317 3.924-8.711 4.368z"></path>
</symbol>
<symbol id="icon-github" viewBox="0 0 31 32">
<title>github</title>
<path d="M10.369 24.837c0 0.125-0.144 0.225-0.325 0.225-0.206 0.019-0.35-0.081-0.35-0.225 0-0.125 0.144-0.225 0.325-0.225 0.188-0.019 0.35 0.081 0.35 0.225zM8.425 24.556c-0.044 0.125 0.081 0.269 0.269 0.306 0.162 0.063 0.35 0 0.387-0.125s-0.081-0.269-0.269-0.325c-0.162-0.044-0.344 0.019-0.387 0.144zM11.188 24.45c-0.181 0.044-0.306 0.163-0.287 0.306 0.019 0.125 0.181 0.206 0.369 0.163 0.181-0.044 0.306-0.163 0.287-0.288-0.019-0.119-0.188-0.2-0.369-0.181zM15.3 0.5c-8.669 0-15.3 6.581-15.3 15.25 0 6.931 4.362 12.863 10.594 14.95 0.8 0.144 1.081-0.35 1.081-0.756 0-0.387-0.019-2.525-0.019-3.837 0 0-4.375 0.938-5.294-1.863 0 0-0.713-1.819-1.737-2.288 0 0-1.431-0.981 0.1-0.962 0 0 1.556 0.125 2.412 1.613 1.369 2.413 3.662 1.719 4.556 1.306 0.144-1 0.55-1.694 1-2.106-3.494-0.387-7.019-0.894-7.019-6.906 0-1.719 0.475-2.581 1.475-3.681-0.162-0.406-0.694-2.081 0.162-4.244 1.306-0.406 4.313 1.688 4.313 1.688 1.25-0.35 2.594-0.531 3.925-0.531s2.675 0.181 3.925 0.531c0 0 3.006-2.1 4.313-1.688 0.856 2.169 0.325 3.838 0.163 4.244 1 1.106 1.613 1.969 1.613 3.681 0 6.031-3.681 6.512-7.175 6.906 0.575 0.494 1.063 1.431 1.063 2.9 0 2.106-0.019 4.712-0.019 5.225 0 0.406 0.288 0.9 1.081 0.756 6.25-2.075 10.488-8.006 10.488-14.938 0-8.669-7.031-15.25-15.7-15.25zM6.075 22.056c-0.081 0.063-0.063 0.206 0.044 0.325 0.1 0.1 0.244 0.144 0.325 0.063 0.081-0.063 0.063-0.206-0.044-0.325-0.1-0.1-0.244-0.144-0.325-0.063zM5.4 21.55c-0.044 0.081 0.019 0.181 0.144 0.244 0.1 0.063 0.225 0.044 0.269-0.044 0.044-0.081-0.019-0.181-0.144-0.244-0.125-0.038-0.225-0.019-0.269 0.044zM7.425 23.775c-0.1 0.081-0.063 0.269 0.081 0.387 0.144 0.144 0.325 0.163 0.406 0.063 0.081-0.081 0.044-0.269-0.081-0.387-0.138-0.144-0.325-0.163-0.406-0.063zM6.713 22.856c-0.1 0.063-0.1 0.225 0 0.369s0.269 0.206 0.35 0.144c0.1-0.081 0.1-0.244 0-0.387-0.088-0.144-0.25-0.206-0.35-0.125z"></path>
</symbol>
<symbol id="icon-forward" viewBox="0 0 32 32">
<title>forward</title>
<path d="M31.126 14.658l-13.516-7.803c-0.305-0.176-0.613-0.266-0.914-0.266-0.83 0-1.41 0.661-1.41 1.607v6.142l-12.963-7.484c-0.305-0.176-0.613-0.266-0.914-0.266-0.83 0-1.41 0.661-1.41 1.607v15.606c0 0.946 0.58 1.607 1.41 1.607 0.301 0 0.609-0.089 0.914-0.265l12.963-7.484v6.142c0 0.946 0.58 1.607 1.41 1.607 0.301 0 0.609-0.089 0.914-0.265l13.516-7.803c0.555-0.321 0.874-0.81 0.874-1.342s-0.319-1.021-0.874-1.342zM15.126 16.106l-13.516 7.803c-0.075 0.043-0.129 0.061-0.163 0.069-0.010-0.035-0.021-0.092-0.021-0.175v-15.606c0-0.086 0.011-0.142 0.022-0.175 0.033 0.008 0.087 0.026 0.162 0.069l13.516 7.803c0.075 0.043 0.118 0.081 0.141 0.106-0.023 0.025-0.066 0.063-0.141 0.106zM30.413 16.106l-13.516 7.803c-0.075 0.043-0.129 0.061-0.163 0.069-0.010-0.035-0.021-0.092-0.021-0.175v-15.606c0-0.086 0.011-0.142 0.021-0.175 0.033 0.008 0.087 0.026 0.162 0.069l13.516 7.803c0.072 0.042 0.116 0.079 0.141 0.106-0.023 0.025-0.066 0.063-0.141 0.106z"></path>
</symbol>
<symbol id="icon-facebook" viewBox="0 0 20 32">
<title>facebook</title>
<path d="M17.446 18l0.889-5.791h-5.557v-3.758c0-1.584 0.776-3.129 3.265-3.129h2.526v-4.931s-2.293-0.391-4.484-0.391c-4.576 0-7.567 2.774-7.567 7.795v4.414h-5.087v5.791h5.087v14h6.261v-14z"></path>
</symbol>
<symbol id="icon-compass-regular" viewBox="0 0 31 32">
<title>compass-regular</title>
<path d="M21.746 8.116l-9.021 4.123c-0.438 0.204-0.782 0.548-0.98 0.973l-0.005 0.012-4.123 9.021c-0.476 1.041 0.596 2.113 1.637 1.637l9.021-4.123c0.438-0.203 0.782-0.548 0.98-0.973l0.005-0.012 4.123-9.021c0.476-1.041-0.596-2.113-1.637-1.637zM16.911 17.411c-0.779 0.779-2.043 0.779-2.822 0s-0.779-2.043 0-2.822c0.779-0.779 2.043-0.779 2.822 0s0.779 2.043 0 2.822zM15.5 0.5c-8.561 0-15.5 6.939-15.5 15.5s6.939 15.5 15.5 15.5 15.5-6.939 15.5-15.5-6.939-15.5-15.5-15.5zM15.5 28.5c-6.893 0-12.5-5.608-12.5-12.5s5.607-12.5 12.5-12.5 12.5 5.607 12.5 12.5-5.608 12.5-12.5 12.5z"></path>
</symbol>
<symbol id="icon-codepen" viewBox="0 0 32 32">
<title>codepen</title>
<path d="M31.393 9.982l-14.625-9.75c-0.499-0.307-1.032-0.31-1.536 0l-14.625 9.75c-0.375 0.25-0.607 0.696-0.607 1.143v9.75c0 0.446 0.232 0.893 0.607 1.143l14.625 9.751c0.499 0.307 1.032 0.31 1.536 0l14.625-9.751c0.375-0.25 0.607-0.696 0.607-1.143v-9.75c-0-0.446-0.232-0.893-0.607-1.143zM17.375 3.946l10.768 7.179-4.804 3.214-5.964-3.982v-6.411zM14.625 3.946v6.411l-5.964 3.982-4.804-3.214 10.768-7.179zM2.75 13.696l3.446 2.304-3.446 2.304v-4.607zM14.625 28.053l-10.768-7.179 4.804-3.214 5.964 3.982v6.411zM16 19.249l-4.857-3.25 4.857-3.25 4.857 3.25-4.857 3.25zM17.375 28.053v-6.411l5.964-3.982 4.804 3.214-10.768 7.179zM29.25 18.303l-3.446-2.304 3.446-2.304v4.607z"></path>
</symbol>
<symbol id="icon-clock" viewBox="0 0 32 32">
<title>clock</title>
<path d="M16 0.5c-8.563 0-15.5 6.938-15.5 15.5s6.938 15.5 15.5 15.5 15.5-6.938 15.5-15.5-6.938-15.5-15.5-15.5zM16 28.5c-6.906 0-12.5-5.594-12.5-12.5s5.594-12.5 12.5-12.5 12.5 5.594 12.5 12.5-5.594 12.5-12.5 12.5zM19.863 21.975l-5.306-3.856c-0.194-0.144-0.306-0.369-0.306-0.606v-10.262c0-0.412 0.338-0.75 0.75-0.75h2c0.413 0 0.75 0.338 0.75 0.75v8.856l4.175 3.038c0.337 0.244 0.406 0.712 0.163 1.050l-1.175 1.619c-0.244 0.331-0.712 0.406-1.050 0.163z"></path>
</symbol>
<symbol id="icon-call" viewBox="0 0 32 32">
<title>call</title>
<path d="M29.432 21.004c-1.959 0-3.883-0.306-5.706-0.909-0.909-0.31-1.944-0.069-2.537 0.535l-3.598 2.716c-4.173-2.227-6.743-4.797-8.94-8.938l2.636-3.504c0.685-0.684 0.931-1.683 0.636-2.621-0.605-1.832-0.912-3.755-0.912-5.715 0-1.416-1.152-2.568-2.568-2.568h-5.877c-1.416 0-2.568 1.152-2.568 2.568 0 16.229 13.203 29.432 29.432 29.432 1.416 0 2.568-1.152 2.568-2.568v-5.86c-0-1.416-1.152-2.568-2.568-2.568zM30.222 29.432c0 0.436-0.354 0.79-0.79 0.79-15.249 0-27.654-12.405-27.654-27.654 0-0.436 0.354-0.79 0.79-0.79h5.877c0.436 0 0.79 0.354 0.79 0.79 0 2.15 0.338 4.26 0.998 6.26 0.092 0.295 0.017 0.601-0.281 0.912l-3.056 4.047c-0.205 0.272-0.237 0.635-0.083 0.938 2.494 4.902 5.524 7.932 10.461 10.462 0.3 0.157 0.668 0.124 0.941-0.082l4.14-3.136c0.209-0.209 0.523-0.284 0.806-0.188 2.013 0.665 4.123 1.002 6.273 1.002 0.436 0 0.79 0.354 0.79 0.79v5.86z"></path>
</symbol>
<symbol id="icon-arrow-prev" viewBox="0 0 32 32">
<title>arrow-prev</title>
<path d="M9.736 15.999l14.452-14.452c0.355-0.355 0.355-0.925 0-1.281s-0.925-0.355-1.281 0l-15.095 15.095c-0.355 0.355-0.355 0.925 0 1.281l15.095 15.089c0.174 0.174 0.409 0.268 0.637 0.268s0.463-0.087 0.637-0.268c0.355-0.355 0.355-0.925 0-1.281l-14.445-14.452z"></path>
</symbol>
<symbol id="icon-arrow-next" viewBox="0 0 32 32">
<title>arrow-next</title>
<path d="M24.191 15.362l-15.095-15.095c-0.355-0.355-0.925-0.355-1.281 0s-0.355 0.925 0 1.281l14.452 14.452-14.452 14.452c-0.355 0.355-0.355 0.925 0 1.281 0.174 0.174 0.409 0.268 0.637 0.268s0.463-0.087 0.637-0.268l15.095-15.095c0.355-0.349 0.355-0.925 0.007-1.274z"></path>
</symbol>
<symbol id="icon-dribbble-logo" viewBox="0 0 32 32">
<title>dribbble-logo</title>
<path d="M31.67 12.781c-0.207-1.027-0.524-2.043-0.935-3.007-0.396-0.949-0.895-1.864-1.471-2.719-0.575-0.847-1.231-1.644-1.955-2.367-0.721-0.723-1.516-1.379-2.366-1.952-0.855-0.579-1.77-1.075-2.719-1.477-0.966-0.406-1.974-0.723-3.006-0.929-1.051-0.219-2.137-0.329-3.219-0.329-1.086 0-2.169 0.11-3.222 0.329-1.028 0.207-2.037 0.523-3.006 0.929-0.948 0.403-1.865 0.899-2.719 1.477-0.846 0.574-1.642 1.231-2.368 1.952-0.724 0.723-1.38 1.52-1.95 2.367-0.579 0.855-1.075 1.77-1.476 2.719-0.411 0.965-0.724 1.98-0.933 3.007-0.217 1.051-0.326 2.137-0.326 3.219 0 1.087 0.11 2.174 0.326 3.222 0.209 1.028 0.522 2.040 0.933 3.008 0.401 0.945 0.897 1.864 1.476 2.717 0.57 0.847 1.226 1.642 1.95 2.368 0.726 0.723 1.523 1.377 2.368 1.947 0.854 0.58 1.771 1.075 2.719 1.478 0.969 0.409 1.978 0.721 3.006 0.933 1.054 0.215 2.137 0.325 3.222 0.325 1.082 0 2.17-0.11 3.219-0.325 1.031-0.209 2.040-0.522 3.006-0.933 0.949-0.404 1.864-0.899 2.719-1.478 0.847-0.57 1.644-1.225 2.366-1.947 0.724-0.726 1.38-1.519 1.955-2.368 0.58-0.854 1.075-1.771 1.471-2.717 0.411-0.969 0.729-1.98 0.935-3.008 0.22-1.051 0.33-2.137 0.33-3.222-0.001-1.082-0.111-2.168-0.33-3.219zM15.999 2.336c3.46 0 6.617 1.289 9.023 3.411-0.034 0.054-1.979 3.016-7.139 4.949-2.334-4.293-4.9-7.703-5.103-7.974 1.033-0.25 2.11-0.386 3.219-0.386zM12.726 2.735l-0.005 0.004c0 0-0.017 0.004-0.038 0.007 0.011-0.004 0.027-0.007 0.043-0.011zM10.167 3.645c0.183 0.242 2.71 3.668 5.075 7.871-6.559 1.742-12.254 1.675-12.614 1.668 0.887-4.23 3.731-7.742 7.539-9.539zM5.831 25.126c-2.174-2.417-3.498-5.615-3.498-9.126 0-0.144 0.010-0.288 0.012-0.431 0.242 0.005 6.994 0.156 14.027-1.948 0.39 0.766 0.766 1.547 1.109 2.324-0.183 0.052-0.359 0.105-0.539 0.16-7.368 2.384-11.109 9.012-11.111 9.021zM15.999 29.665c-3.169 0-6.074-1.103-8.391-2.911 0 0.006-0.007 0.022-0.007 0.022s-0.126-0.091-0.304-0.238c0.097 0.079 0.213 0.138 0.311 0.219 0.103-0.214 2.772-5.748 10.716-8.515 0.031-0.010 0.060-0.020 0.089-0.030 1.923 4.997 2.719 9.18 2.918 10.375-1.637 0.693-3.442 1.077-5.332 1.077zM23.63 27.331c-0.135-0.823-0.865-4.832-2.655-9.76 4.41-0.705 8.232 0.505 8.511 0.598-0.604 3.806-2.788 7.090-5.856 9.161zM20.138 15.418c-0.092-0.234-0.191-0.469-0.292-0.708-0.282-0.667-0.59-1.332-0.91-1.98 5.4-2.203 7.59-5.372 7.617-5.411 1.918 2.329 3.072 5.301 3.105 8.541-0.197-0.039-4.823-1.031-9.521-0.442z"></path>
</symbol>
<symbol id="icon-search" viewBox="0 0 32 32">
<title>search</title>
<path d="M31.563 27.669l-6.231-6.231c-0.281-0.281-0.663-0.438-1.063-0.438h-1.019c1.725-2.206 2.75-4.981 2.75-8 0-7.181-5.819-13-13-13s-13 5.819-13 13 5.819 13 13 13c3.019 0 5.794-1.025 8-2.75v1.019c0 0.4 0.156 0.781 0.438 1.063l6.231 6.231c0.587 0.587 1.538 0.587 2.119 0l1.769-1.769c0.587-0.587 0.587-1.538 0.006-2.125zM13 21c-4.419 0-8-3.575-8-8 0-4.419 3.575-8 8-8 4.419 0 8 3.575 8 8 0 4.419-3.575 8-8 8z"></path>
</symbol>
</defs>
</svg>
