<svg aria-hidden="true" style="position: absolute; width: 0; height: 0; overflow: hidden;" version="1.1" xmlns="http://www.w3.org/2000/svg" xmlns:xlink="http://www.w3.org/1999/xlink">
<defs>
<symbol id="twitter" viewBox="0 0 32 32">
<title>twitter</title>
<path d="M28.711 9.482c0.020 0.284 0.020 0.569 0.020 0.853 0 8.67-6.599 18.66-18.66 18.66-3.716 0-7.168-1.076-10.071-2.944 0.528 0.061 1.036 0.081 1.584 0.081 3.066 0 5.888-1.035 8.142-2.802-2.883-0.061-5.3-1.949-6.132-4.548 0.406 0.061 0.812 0.102 1.239 0.102 0.589 0 1.178-0.081 1.726-0.223-3.005-0.609-5.259-3.249-5.259-6.437v-0.081c0.873 0.487 1.888 0.792 2.964 0.832-1.766-1.178-2.924-3.188-2.924-5.462 0-1.218 0.325-2.335 0.893-3.31 3.228 3.98 8.081 6.579 13.523 6.863-0.101-0.487-0.162-0.995-0.162-1.502 0-3.614 2.924-6.558 6.558-6.558 1.888 0 3.594 0.792 4.792 2.071 1.482-0.284 2.904-0.832 4.162-1.584-0.487 1.523-1.523 2.802-2.883 3.614 1.32-0.142 2.599-0.508 3.777-1.015-0.893 1.299-2.010 2.457-3.289 3.391z"></path>
</symbol>
<symbol id="github" viewBox="0 0 31 32">
<title>github</title>
<path d="M10.369 24.837c0 0.125-0.144 0.225-0.325 0.225-0.206 0.019-0.35-0.081-0.35-0.225 0-0.125 0.144-0.225 0.325-0.225 0.188-0.019 0.35 0.081 0.35 0.225zM8.425 24.556c-0.044 0.125 0.081 0.269 0.269 0.306 0.162 0.063 0.35 0 0.387-0.125s-0.081-0.269-0.269-0.325c-0.162-0.044-0.344 0.019-0.387 0.144zM11.188 24.45c-0.181 0.044-0.306 0.163-0.287 0.306 0.019 0.125 0.181 0.206 0.369 0.163 0.181-0.044 0.306-0.163 0.287-0.288-0.019-0.119-0.188-0.2-0.369-0.181zM15.3 0.5c-8.669 0-15.3 6.581-15.3 15.25 0 6.931 4.362 12.863 10.594 14.95 0.8 0.144 1.081-0.35 1.081-0.756 0-0.387-0.019-2.525-0.019-3.837 0 0-4.375 0.938-5.294-1.863 0 0-0.713-1.819-1.737-2.288 0 0-1.431-0.981 0.1-0.962 0 0 1.556 0.125 2.412 1.613 1.369 2.413 3.662 1.719 4.556 1.306 0.144-1 0.55-1.694 1-2.106-3.494-0.387-7.019-0.894-7.019-6.906 0-1.719 0.475-2.581 1.475-3.681-0.162-0.406-0.694-2.081 0.162-4.244 1.306-0.406 4.313 1.688 4.313 1.688 1.25-0.35 2.594-0.531 3.925-0.531s2.675 0.181 3.925 0.531c0 0 3.006-2.1 4.313-1.688 0.856 2.169 0.325 3.838 0.163 4.244 1 1.106 1.613 1.969 1.613 3.681 0 6.031-3.681 6.512-7.175 6.906 0.575 0.494 1.063 1.431 1.063 2.9 0 2.106-0.019 4.712-0.019 5.225 0 0.406 0.288 0.9 1.081 0.756 6.25-2.075 10.488-8.006 10.488-14.938 0-8.669-7.031-15.25-15.7-15.25zM6.075 22.056c-0.081 0.063-0.063 0.206 0.044 0.325 0.1 0.1 0.244 0.144 0.325 0.063 0.081-0.063 0.063-0.206-0.044-0.325-0.1-0.1-0.244-0.144-0.325-0.063zM5.4 21.55c-0.044 0.081 0.019 0.181 0.144 0.244 0.1 0.063 0.225 0.044 0.269-0.044 0.044-0.081-0.019-0.181-0.144-0.244-0.125-0.038-0.225-0.019-0.269 0.044zM7.425 23.775c-0.1 0.081-0.063 0.269 0.081 0.387 0.144 0.144 0.325 0.163 0.406 0.063 0.081-0.081 0.044-0.269-0.081-0.387-0.138-0.144-0.325-0.163-0.406-0.063zM6.713 22.856c-0.1 0.063-0.1 0.225 0 0.369s0.269 0.206 0.35 0.144c0.1-0.081 0.1-0.244 0-0.387-0.088-0.144-0.25-0.206-0.35-0.125z"></path>
</symbol>
<symbol id="facebook" viewBox="0 0 20 32">
<title>facebook</title>
<path d="M17.446 18l0.889-5.791h-5.557v-3.758c0-1.584 0.776-3.129 3.265-3.129h2.526v-4.931s-2.293-0.391-4.484-0.391c-4.576 0-7.567 2.774-7.567 7.795v4.414h-5.087v5.791h5.087v14h6.261v-14z"></path>
</symbol>
<symbol id="codepen" viewBox="0 0 32 32">
<title>codepen</title>
<path d="M31.393 9.982l-14.625-9.75c-0.499-0.307-1.032-0.31-1.536 0l-14.625 9.75c-0.375 0.25-0.607 0.696-0.607 1.143v9.75c0 0.446 0.232 0.893 0.607 1.143l14.625 9.751c0.499 0.307 1.032 0.31 1.536 0l14.625-9.751c0.375-0.25 0.607-0.696 0.607-1.143v-9.75c-0-0.446-0.232-0.893-0.607-1.143zM17.375 3.946l10.768 7.179-4.804 3.214-5.964-3.982v-6.411zM14.625 3.946v6.411l-5.964 3.982-4.804-3.214 10.768-7.179zM2.75 13.696l3.446 2.304-3.446 2.304v-4.607zM14.625 28.053l-10.768-7.179 4.804-3.214 5.964 3.982v6.411zM16 19.249l-4.857-3.25 4.857-3.25 4.857 3.25-4.857 3.25zM17.375 28.053v-6.411l5.964-3.982 4.804 3.214-10.768 7.179zM29.25 18.303l-3.446-2.304 3.446-2.304v4.607z"></path>
</symbol>
<symbol id="dribbble" viewBox="0 0 32 32">
<title>dribbble-logo</title>
<path d="M31.67 12.781c-0.207-1.027-0.524-2.043-0.935-3.007-0.396-0.949-0.895-1.864-1.471-2.719-0.575-0.847-1.231-1.644-1.955-2.367-0.721-0.723-1.516-1.379-2.366-1.952-0.855-0.579-1.77-1.075-2.719-1.477-0.966-0.406-1.974-0.723-3.006-0.929-1.051-0.219-2.137-0.329-3.219-0.329-1.086 0-2.169 0.11-3.222 0.329-1.028 0.207-2.037 0.523-3.006 0.929-0.948 0.403-1.865 0.899-2.719 1.477-0.846 0.574-1.642 1.231-2.368 1.952-0.724 0.723-1.38 1.52-1.95 2.367-0.579 0.855-1.075 1.77-1.476 2.719-0.411 0.965-0.724 1.98-0.933 3.007-0.217 1.051-0.326 2.137-0.326 3.219 0 1.087 0.11 2.174 0.326 3.222 0.209 1.028 0.522 2.040 0.933 3.008 0.401 0.945 0.897 1.864 1.476 2.717 0.57 0.847 1.226 1.642 1.95 2.368 0.726 0.723 1.523 1.377 2.368 1.947 0.854 0.58 1.771 1.075 2.719 1.478 0.969 0.409 1.978 0.721 3.006 0.933 1.054 0.215 2.137 0.325 3.222 0.325 1.082 0 2.17-0.11 3.219-0.325 1.031-0.209 2.040-0.522 3.006-0.933 0.949-0.404 1.864-0.899 2.719-1.478 0.847-0.57 1.644-1.225 2.366-1.947 0.724-0.726 1.38-1.519 1.955-2.368 0.58-0.854 1.075-1.771 1.471-2.717 0.411-0.969 0.729-1.98 0.935-3.008 0.22-1.051 0.33-2.137 0.33-3.222-0.001-1.082-0.111-2.168-0.33-3.219zM15.999 2.336c3.46 0 6.617 1.289 9.023 3.411-0.034 0.054-1.979 3.016-7.139 4.949-2.334-4.293-4.9-7.703-5.103-7.974 1.033-0.25 2.11-0.386 3.219-0.386zM12.726 2.735l-0.005 0.004c0 0-0.017 0.004-0.038 0.007 0.011-0.004 0.027-0.007 0.043-0.011zM10.167 3.645c0.183 0.242 2.71 3.668 5.075 7.871-6.559 1.742-12.254 1.675-12.614 1.668 0.887-4.23 3.731-7.742 7.539-9.539zM5.831 25.126c-2.174-2.417-3.498-5.615-3.498-9.126 0-0.144 0.010-0.288 0.012-0.431 0.242 0.005 6.994 0.156 14.027-1.948 0.39 0.766 0.766 1.547 1.109 2.324-0.183 0.052-0.359 0.105-0.539 0.16-7.368 2.384-11.109 9.012-11.111 9.021zM15.999 29.665c-3.169 0-6.074-1.103-8.391-2.911 0 0.006-0.007 0.022-0.007 0.022s-0.126-0.091-0.304-0.238c0.097 0.079 0.213 0.138 0.311 0.219 0.103-0.214 2.772-5.748 10.716-8.515 0.031-0.010 0.060-0.020 0.089-0.030 1.923 4.997 2.719 9.18 2.918 10.375-1.637 0.693-3.442 1.077-5.332 1.077zM23.63 27.331c-0.135-0.823-0.865-4.832-2.655-9.76 4.41-0.705 8.232 0.505 8.511 0.598-0.604 3.806-2.788 7.090-5.856 9.161zM20.138 15.418c-0.092-0.234-0.191-0.469-0.292-0.708-0.282-0.667-0.59-1.332-0.91-1.98 5.4-2.203 7.59-5.372 7.617-5.411 1.918 2.329 3.072 5.301 3.105 8.541-0.197-0.039-4.823-1.031-9.521-0.442z"></path>
</symbol>
<symbol id="icon-linkedin-in-brands" viewBox="0 0 28 32">
<title>linkedin-in-brands</title>
<path d="M6.268 28h-5.805v-18.694h5.805zM3.362 6.756c-1.856 0-3.362-1.537-3.362-3.394s1.505-3.362 3.362-3.362 3.362 1.505 3.362 3.362v0c0 1.856-1.506 3.394-3.362 3.394zM27.994 28h-5.793v-9.1c0-2.169-0.044-4.95-3.018-4.95-3.018 0-3.481 2.356-3.481 4.794v9.256h-5.799v-18.694h5.568v2.55h0.081c0.775-1.469 2.668-3.019 5.492-3.019 5.875 0 6.955 3.869 6.955 8.894v10.269z"></path>
</symbol>
</defs>
</svg>
