<svg aria-hidden="true" style="position: absolute; width: 0; height: 0; overflow: hidden;" version="1.1" xmlns="http://www.w3.org/2000/svg" xmlns:xlink="http://www.w3.org/1999/xlink">
<defs>
<symbol id="twitter" viewBox="0 0 32 32">
<title>twitter</title>
<path d="M28.711 9.482c0.020 0.284 0.020 0.569 0.020 0.853 0 8.67-6.599 18.66-18.66 18.66-3.716 0-7.168-1.076-10.071-2.944 0.528 0.061 1.036 0.081 1.584 0.081 3.066 0 5.888-1.035 8.142-2.802-2.883-0.061-5.3-1.949-6.132-4.548 0.406 0.061 0.812 0.102 1.239 0.102 0.589 0 1.178-0.081 1.726-0.223-3.005-0.609-5.259-3.249-5.259-6.437v-0.081c0.873 0.487 1.888 0.792 2.964 0.832-1.766-1.178-2.924-3.188-2.924-5.462 0-1.218 0.325-2.335 0.893-3.31 3.228 3.98 8.081 6.579 13.523 6.863-0.101-0.487-0.162-0.995-0.162-1.502 0-3.614 2.924-6.558 6.558-6.558 1.888 0 3.594 0.792 4.792 2.071 1.482-0.284 2.904-0.832 4.162-1.584-0.487 1.523-1.523 2.802-2.883 3.614 1.32-0.142 2.599-0.508 3.777-1.015-0.893 1.299-2.010 2.457-3.289 3.391z"></path>
</symbol>
<symbol id="snapchat" viewBox="0 0 32 32">
<title>snapchat</title>
<path d="M31.928 24.542c-0.326 0.76-1.702 1.318-4.21 1.707-0.129 0.174-0.236 0.918-0.407 1.497-0.102 0.348-0.351 0.554-0.758 0.554l-0.019-0c-0.587 0-1.2-0.27-2.428-0.27-1.658 0-2.229 0.378-3.516 1.287-1.364 0.965-2.673 1.798-4.627 1.712-1.978 0.146-3.627-1.057-4.554-1.713-1.295-0.915-1.864-1.286-3.515-1.286-1.179 0-1.921 0.295-2.428 0.295-0.505 0-0.701-0.308-0.776-0.565-0.169-0.574-0.275-1.329-0.408-1.508-1.292-0.201-4.207-0.709-4.281-2.009-0.001-0.011-0.001-0.024-0.001-0.037 0-0.329 0.239-0.601 0.552-0.655l0.004-0.001c4.349-0.716 6.308-5.181 6.389-5.371 0.005-0.011 0.010-0.021 0.015-0.032 0.232-0.471 0.284-0.866 0.154-1.172-0.316-0.744-1.679-1.010-2.253-1.237-1.482-0.585-1.688-1.258-1.601-1.719 0.152-0.802 1.358-1.296 2.063-0.966 0.557 0.261 1.053 0.394 1.472 0.394 0.314 0 0.513-0.075 0.623-0.136-0.128-2.246-0.444-5.456 0.355-7.248 2.111-4.732 6.585-5.1 7.905-5.1 0.059 0 0.571-0.006 0.632-0.006 3.259 0 6.391 1.674 7.92 5.103 0.799 1.791 0.484 4.987 0.356 7.251 0.099 0.055 0.272 0.121 0.537 0.134 0.4-0.018 0.863-0.149 1.379-0.391 0.38-0.178 0.9-0.154 1.28 0.004l0.002 0.001c0.592 0.212 0.965 0.638 0.974 1.117 0.012 0.609-0.533 1.135-1.617 1.564-0.132 0.052-0.293 0.103-0.465 0.158-0.612 0.194-1.538 0.488-1.788 1.079-0.13 0.306-0.078 0.701 0.154 1.172 0.005 0.011 0.010 0.021 0.015 0.032 0.081 0.189 2.038 4.654 6.389 5.371 0.402 0.066 0.698 0.492 0.483 0.991z"></path>
</symbol>
<symbol id="signal" viewBox="0 0 40 32">
<title>signal</title>
<path d="M13.5 18h-3c-0.553 0-1 0.448-1 1v12c0 0.552 0.447 1 1 1h3c0.553 0 1-0.448 1-1v-12c0-0.552-0.447-1-1-1zM5.5 24h-3c-0.552 0-1 0.448-1 1v6c0 0.552 0.448 1 1 1h3c0.553 0 1-0.448 1-1v-6c0-0.552-0.447-1-1-1zM21.5 12h-3c-0.552 0-1 0.447-1 1v18c0 0.552 0.448 1 1 1h3c0.552 0 1-0.448 1-1v-18c0-0.553-0.448-1-1-1zM29.5 6h-3c-0.552 0-1 0.447-1 1v24c0 0.552 0.448 1 1 1h3c0.552 0 1-0.448 1-1v-24c0-0.553-0.448-1-1-1zM37.5 0h-3c-0.553 0-1 0.448-1 1v30c0 0.552 0.447 1 1 1h3c0.553 0 1-0.448 1-1v-30c0-0.552-0.447-1-1-1z"></path>
</symbol>
<symbol id="rocket" viewBox="0 0 32 32">
<title>rocket</title>
<path d="M31.566 1.194c-0.084-0.382-0.38-0.678-0.756-0.761l-0.007-0.001c-2.012-0.431-3.587-0.431-5.156-0.431-6.45 0-10.319 3.45-13.206 8h-6.513c-1.166 0.001-2.176 0.667-2.671 1.639l-0.008 0.017-3.089 6.175c-0.099 0.195-0.158 0.425-0.158 0.669 0 0.828 0.672 1.5 1.5 1.5 0 0 0.001 0 0.001 0h6.486l-1.404 1.404c-0.362 0.362-0.586 0.862-0.586 1.414s0.224 1.052 0.586 1.414l3.181 3.182c0.362 0.362 0.862 0.586 1.414 0.586s1.052-0.224 1.414-0.586l1.404-1.404v6.49c0 0 0 0 0 0 0 0.828 0.672 1.5 1.5 1.5 0.244 0 0.474-0.058 0.677-0.161l-0.009 0.004 6.169-3.087c0.99-0.502 1.656-1.513 1.656-2.679 0-0.001 0-0.002 0-0.003v0-6.526c4.537-2.894 8-6.775 8-13.193 0.006-1.575 0.006-3.15-0.428-5.162zM24 10.5c-1.381 0-2.5-1.119-2.5-2.5s1.119-2.5 2.5-2.5c1.381 0 2.5 1.119 2.5 2.5v0c0 1.381-1.119 2.5-2.5 2.5v0z"></path>
</symbol>
<symbol id="paper-plane" viewBox="0 0 32 32">
<title>paper-plane</title>
<path d="M29.75 0.2l-28.969 16.712c-1.131 0.65-0.988 2.225 0.137 2.7l6.644 2.788 17.956-15.825c0.344-0.306 0.831 0.162 0.538 0.519l-15.056 18.344v5.031c0 1.475 1.781 2.056 2.656 0.988l3.969-4.831 7.788 3.262c0.887 0.375 1.9-0.181 2.063-1.137l4.5-27c0.212-1.262-1.144-2.175-2.225-1.55z"></path>
</symbol>
<symbol id="medium" viewBox="0 0 32 32">
<title>medium</title>
<path d="M4.469 8.894c0.037-0.369-0.106-0.738-0.381-0.987l-2.819-3.4v-0.506h8.762l6.775 14.856 5.956-14.856h8.356v0.506l-2.413 2.313c-0.206 0.156-0.313 0.419-0.269 0.675v17c-0.044 0.256 0.063 0.519 0.269 0.675l2.356 2.313v0.506h-11.856v-0.506l2.444-2.369c0.238-0.238 0.238-0.313 0.238-0.675v-13.738l-6.794 17.244h-0.919l-7.9-17.244v11.556c-0.069 0.488 0.094 0.975 0.438 1.325l3.175 3.85v0.506h-9v-0.5l3.175-3.856c0.338-0.35 0.494-0.844 0.406-1.325v-13.363z"></path>
</symbol>
<symbol id="instagram" viewBox="0 0 28 32">
<title>instagram</title>
<path d="M14.006 8.813c-3.975 0-7.181 3.206-7.181 7.181s3.206 7.181 7.181 7.181 7.181-3.206 7.181-7.181-3.206-7.181-7.181-7.181zM14.006 20.663c-2.569 0-4.669-2.094-4.669-4.669s2.094-4.669 4.669-4.669 4.669 2.094 4.669 4.669-2.1 4.669-4.669 4.669zM23.156 8.519c0 0.931-0.75 1.675-1.675 1.675-0.931 0-1.675-0.75-1.675-1.675s0.75-1.675 1.675-1.675 1.675 0.75 1.675 1.675zM27.913 10.219c-0.106-2.244-0.619-4.231-2.262-5.869-1.637-1.638-3.625-2.15-5.869-2.263-2.313-0.131-9.244-0.131-11.556 0-2.237 0.106-4.225 0.619-5.869 2.256s-2.15 3.625-2.263 5.869c-0.131 2.313-0.131 9.244 0 11.556 0.106 2.244 0.619 4.231 2.263 5.869s3.625 2.15 5.869 2.262c2.313 0.131 9.244 0.131 11.556 0 2.244-0.106 4.231-0.619 5.869-2.262 1.637-1.637 2.15-3.625 2.262-5.869 0.131-2.313 0.131-9.238 0-11.55zM24.925 24.25c-0.488 1.225-1.431 2.169-2.663 2.663-1.844 0.731-6.219 0.563-8.256 0.563s-6.419 0.163-8.256-0.563c-1.225-0.488-2.169-1.431-2.663-2.663-0.731-1.844-0.563-6.219-0.563-8.256s-0.163-6.419 0.563-8.256c0.487-1.225 1.431-2.169 2.663-2.662 1.844-0.731 6.219-0.563 8.256-0.563s6.419-0.162 8.256 0.563c1.225 0.487 2.169 1.431 2.663 2.662 0.731 1.844 0.563 6.219 0.563 8.256s0.169 6.419-0.563 8.256z"></path>
</symbol>
<symbol id="gem" viewBox="0 0 36 32">
<title>gem</title>
<path d="M29 0h-22c-0.25 0-0.487 0.125-0.625 0.338l-6.25 9.2c-0.181 0.275-0.163 0.637 0.044 0.887l17.25 21.3c0.3 0.369 0.863 0.369 1.163 0l17.25-21.3c0.206-0.256 0.225-0.613 0.044-0.887l-6.244-9.2c-0.144-0.212-0.375-0.338-0.631-0.338zM27.794 3l3.956 6h-4.275l-3.231-6h3.55zM15.162 3h5.669l3.231 6h-12.125l3.225-6zM8.206 3h3.55l-3.231 6h-4.275l3.956-6zM5.519 12h3.212l4.269 10-7.481-10zM11.95 12h12.1l-6.050 15.206-6.050-15.206zM23 22l4.262-10h3.212l-7.475 10z"></path>
</symbol>
<symbol id="facebook" viewBox="0 0 20 32">
<title>facebook</title>
<path d="M17.446 18l0.889-5.791h-5.557v-3.758c0-1.584 0.776-3.129 3.265-3.129h2.526v-4.931s-2.293-0.391-4.484-0.391c-4.576 0-7.567 2.774-7.567 7.795v4.414h-5.087v5.791h5.087v14h6.261v-14z"></path>
</symbol>
</defs>
</svg>
